<svg width="15" height="15" viewBox="0 0 5 5" fill="none" xmlns="http://www.w3.org/2000/svg">
<g clip-path="url(#clip0_43_66)">
<path fill-rule="evenodd" clip-rule="evenodd" d="M2.50016 0.208374C1.23454 0.208374 0.208496 1.23442 0.208496 2.50004C0.208496 3.76567 1.23454 4.79171 2.50016 4.79171C3.76579 4.79171 4.79183 3.76567 4.79183 2.50004C4.79183 1.23442 3.76579 0.208374 2.50016 0.208374ZM3.4935 2.11254C3.51179 2.09163 3.52571 2.06728 3.53445 2.04091C3.54319 2.01454 3.54657 1.98669 3.54439 1.959C3.5422 1.9313 3.5345 1.90432 3.52174 1.87965C3.50898 1.85498 3.49141 1.8331 3.47007 1.81532C3.44873 1.79754 3.42405 1.7842 3.39747 1.7761C3.3709 1.76799 3.34298 1.76528 3.31535 1.76813C3.28771 1.77098 3.26093 1.77932 3.23657 1.79267C3.21221 1.80602 3.19076 1.82411 3.1735 1.84587L2.27766 2.92067L1.81412 2.45692C1.77483 2.41897 1.7222 2.39797 1.66758 2.39844C1.61295 2.39892 1.5607 2.42083 1.52208 2.45945C1.48345 2.49808 1.46154 2.55033 1.46106 2.60496C1.46059 2.65958 1.48159 2.71221 1.51954 2.7515L2.14454 3.3765C2.16501 3.39696 2.18952 3.41292 2.2165 3.42339C2.24348 3.43385 2.27235 3.43857 2.30126 3.43726C2.33017 3.43595 2.35849 3.42862 2.38441 3.41576C2.41034 3.40289 2.4333 3.38477 2.45183 3.36254L3.4935 2.11254Z" fill="#009848"/>
</g>
<defs>
<clipPath id="clip0_43_66">
<rect width="15" height="15" fill="white"/>
</clipPath>
</defs>
</svg>
